<mxfile host="app.diagrams.net" modified="2023-07-04T14:29:21.454Z" agent="Mozilla/5.0 (Windows NT 10.0; Win64; x64) AppleWebKit/537.36 (KHTML, like Gecko) Chrome/113.0.0.0 Safari/537.36 OPR/99.0.0.0 (Edition std-1)" version="21.2.3" etag="Y6x7Sxfg05XHcIDYDGHz" type="github">
  <diagram name="PÃ¡gina-1" id="m-T5x5f4Uy4eoXbmEqI4">
    <mxGraphModel>
      <root>
        <mxCell id="0" />
        <mxCell id="1" parent="0" />
      </root>
    </mxGraphModel>
  </diagram>
</mxfile>
